<mxfile host="Electron" modified="2024-04-16T18:02:15.360Z" agent="Mozilla/5.0 (Windows NT 10.0; Win64; x64) AppleWebKit/537.36 (KHTML, like Gecko) draw.io/23.1.5 Chrome/120.0.6099.109 Electron/28.1.0 Safari/537.36" etag="OvS_eDXNSzx3Z8ezsOhP" version="23.1.5" type="device">
  <diagram name="Страница — 1" id="wP5YuJ6qS_haN1ASp6le">
    <mxGraphModel dx="2666" dy="3069" grid="1" gridSize="10" guides="1" tooltips="1" connect="1" arrows="1" fold="1" page="1" pageScale="1" pageWidth="2000" pageHeight="2000" math="1" shadow="0">
      <root>
        <mxCell id="0" />
        <mxCell id="1" parent="0" />
        <mxCell id="Y5vmbJ8QWRPklpZZ9SDh-31" style="edgeStyle=orthogonalEdgeStyle;rounded=0;orthogonalLoop=1;jettySize=auto;html=1;exitX=0.5;exitY=1;exitDx=0;exitDy=0;entryX=0.5;entryY=0;entryDx=0;entryDy=0;" edge="1" parent="1" source="Y5vmbJ8QWRPklpZZ9SDh-1" target="Y5vmbJ8QWRPklpZZ9SDh-2">
          <mxGeometry relative="1" as="geometry" />
        </mxCell>
        <mxCell id="Y5vmbJ8QWRPklpZZ9SDh-1" value="&lt;font style=&quot;font-size: 16px;&quot;&gt;Запуск&lt;/font&gt;" style="ellipse;whiteSpace=wrap;html=1;" vertex="1" parent="1">
          <mxGeometry x="870" y="-320" width="120" height="80" as="geometry" />
        </mxCell>
        <mxCell id="Y5vmbJ8QWRPklpZZ9SDh-30" style="edgeStyle=orthogonalEdgeStyle;rounded=0;orthogonalLoop=1;jettySize=auto;html=1;exitX=0.5;exitY=1;exitDx=0;exitDy=0;entryX=0.5;entryY=0;entryDx=0;entryDy=0;" edge="1" parent="1" source="Y5vmbJ8QWRPklpZZ9SDh-2" target="Y5vmbJ8QWRPklpZZ9SDh-3">
          <mxGeometry relative="1" as="geometry" />
        </mxCell>
        <mxCell id="Y5vmbJ8QWRPklpZZ9SDh-2" value="&lt;font style=&quot;font-size: 16px;&quot;&gt;Ввод диапазона [a;b]&lt;/font&gt;" style="shape=parallelogram;html=1;strokeWidth=2;perimeter=parallelogramPerimeter;whiteSpace=wrap;rounded=1;arcSize=12;size=0.23;" vertex="1" parent="1">
          <mxGeometry x="810" y="-220" width="240" height="60" as="geometry" />
        </mxCell>
        <mxCell id="Y5vmbJ8QWRPklpZZ9SDh-29" style="edgeStyle=orthogonalEdgeStyle;rounded=0;orthogonalLoop=1;jettySize=auto;html=1;exitX=0.5;exitY=1;exitDx=0;exitDy=0;entryX=0.5;entryY=0;entryDx=0;entryDy=0;" edge="1" parent="1" source="Y5vmbJ8QWRPklpZZ9SDh-3" target="Y5vmbJ8QWRPklpZZ9SDh-4">
          <mxGeometry relative="1" as="geometry" />
        </mxCell>
        <mxCell id="Y5vmbJ8QWRPklpZZ9SDh-3" value="&lt;font style=&quot;font-size: 16px;&quot;&gt;Выбор функции \( y&#39; = f(x,y) \)&lt;br&gt;для решения ОДУ&lt;/font&gt;" style="shape=parallelogram;html=1;strokeWidth=2;perimeter=parallelogramPerimeter;whiteSpace=wrap;rounded=1;arcSize=12;size=0.23;" vertex="1" parent="1">
          <mxGeometry x="770" y="-140" width="320" height="60" as="geometry" />
        </mxCell>
        <mxCell id="Y5vmbJ8QWRPklpZZ9SDh-32" style="edgeStyle=orthogonalEdgeStyle;rounded=0;orthogonalLoop=1;jettySize=auto;html=1;exitX=0.5;exitY=1;exitDx=0;exitDy=0;entryX=0.5;entryY=0;entryDx=0;entryDy=0;" edge="1" parent="1" source="Y5vmbJ8QWRPklpZZ9SDh-4" target="Y5vmbJ8QWRPklpZZ9SDh-5">
          <mxGeometry relative="1" as="geometry" />
        </mxCell>
        <mxCell id="Y5vmbJ8QWRPklpZZ9SDh-4" value="&lt;font style=&quot;font-size: 16px;&quot;&gt;Выбор значения \( y_{a} \)&lt;/font&gt;" style="shape=parallelogram;html=1;strokeWidth=2;perimeter=parallelogramPerimeter;whiteSpace=wrap;rounded=1;arcSize=12;size=0.23;" vertex="1" parent="1">
          <mxGeometry x="825" y="-60" width="210" height="60" as="geometry" />
        </mxCell>
        <mxCell id="Y5vmbJ8QWRPklpZZ9SDh-33" style="edgeStyle=orthogonalEdgeStyle;rounded=0;orthogonalLoop=1;jettySize=auto;html=1;exitX=0.5;exitY=1;exitDx=0;exitDy=0;entryX=0.5;entryY=0;entryDx=0;entryDy=0;" edge="1" parent="1" source="Y5vmbJ8QWRPklpZZ9SDh-5" target="Y5vmbJ8QWRPklpZZ9SDh-6">
          <mxGeometry relative="1" as="geometry" />
        </mxCell>
        <mxCell id="Y5vmbJ8QWRPklpZZ9SDh-5" value="&lt;font style=&quot;font-size: 16px;&quot;&gt;Ввод точности \( \epsilon \)&lt;/font&gt;" style="shape=parallelogram;html=1;strokeWidth=2;perimeter=parallelogramPerimeter;whiteSpace=wrap;rounded=1;arcSize=12;size=0.23;" vertex="1" parent="1">
          <mxGeometry x="820" y="20" width="220" height="60" as="geometry" />
        </mxCell>
        <mxCell id="Y5vmbJ8QWRPklpZZ9SDh-34" style="edgeStyle=orthogonalEdgeStyle;rounded=0;orthogonalLoop=1;jettySize=auto;html=1;exitX=0.5;exitY=1;exitDx=0;exitDy=0;entryX=0.5;entryY=0;entryDx=0;entryDy=0;" edge="1" parent="1" source="Y5vmbJ8QWRPklpZZ9SDh-6" target="Y5vmbJ8QWRPklpZZ9SDh-7">
          <mxGeometry relative="1" as="geometry" />
        </mxCell>
        <mxCell id="Y5vmbJ8QWRPklpZZ9SDh-6" value="&lt;font style=&quot;font-size: 16px;&quot;&gt;Шаг сетки \( h = (b-a)\cdot \epsilon \)&lt;/font&gt;" style="rounded=1;whiteSpace=wrap;html=1;absoluteArcSize=1;arcSize=14;strokeWidth=2;" vertex="1" parent="1">
          <mxGeometry x="845" y="100" width="170" height="100" as="geometry" />
        </mxCell>
        <mxCell id="Y5vmbJ8QWRPklpZZ9SDh-35" style="edgeStyle=orthogonalEdgeStyle;rounded=0;orthogonalLoop=1;jettySize=auto;html=1;exitX=0.5;exitY=1;exitDx=0;exitDy=0;entryX=0.5;entryY=0;entryDx=0;entryDy=0;" edge="1" parent="1" source="Y5vmbJ8QWRPklpZZ9SDh-7" target="Y5vmbJ8QWRPklpZZ9SDh-10">
          <mxGeometry relative="1" as="geometry" />
        </mxCell>
        <mxCell id="Y5vmbJ8QWRPklpZZ9SDh-7" value="&lt;font style=&quot;font-size: 16px;&quot;&gt;Начальные значения x: \( a, a+h, a+2h, a+3h \)&lt;/font&gt;" style="rounded=1;whiteSpace=wrap;html=1;absoluteArcSize=1;arcSize=14;strokeWidth=2;" vertex="1" parent="1">
          <mxGeometry x="825" y="220" width="210" height="100" as="geometry" />
        </mxCell>
        <mxCell id="Y5vmbJ8QWRPklpZZ9SDh-37" style="edgeStyle=orthogonalEdgeStyle;rounded=0;orthogonalLoop=1;jettySize=auto;html=1;exitX=0.5;exitY=1;exitDx=0;exitDy=0;exitPerimeter=0;" edge="1" parent="1" source="Y5vmbJ8QWRPklpZZ9SDh-9" target="Y5vmbJ8QWRPklpZZ9SDh-11">
          <mxGeometry relative="1" as="geometry" />
        </mxCell>
        <mxCell id="Y5vmbJ8QWRPklpZZ9SDh-9" value="&lt;font style=&quot;font-size: 16px;&quot;&gt;i = 1, ..., 3&lt;/font&gt;" style="strokeWidth=2;html=1;shape=mxgraph.flowchart.loop_limit;whiteSpace=wrap;" vertex="1" parent="1">
          <mxGeometry x="855" y="460" width="150" height="90" as="geometry" />
        </mxCell>
        <mxCell id="Y5vmbJ8QWRPklpZZ9SDh-10" value="&lt;font style=&quot;font-size: 16px;&quot;&gt;Начальное значениу y: \( y_{a} \)&lt;/font&gt;" style="rounded=1;whiteSpace=wrap;html=1;absoluteArcSize=1;arcSize=14;strokeWidth=2;" vertex="1" parent="1">
          <mxGeometry x="880" y="340" width="100" height="100" as="geometry" />
        </mxCell>
        <mxCell id="Y5vmbJ8QWRPklpZZ9SDh-38" style="edgeStyle=orthogonalEdgeStyle;rounded=0;orthogonalLoop=1;jettySize=auto;html=1;exitX=0.5;exitY=1;exitDx=0;exitDy=0;entryX=0.5;entryY=0;entryDx=0;entryDy=0;" edge="1" parent="1" source="Y5vmbJ8QWRPklpZZ9SDh-11" target="Y5vmbJ8QWRPklpZZ9SDh-12">
          <mxGeometry relative="1" as="geometry" />
        </mxCell>
        <mxCell id="Y5vmbJ8QWRPklpZZ9SDh-11" value="&lt;font style=&quot;font-size: 16px;&quot;&gt;С помощью&amp;nbsp; метода Рунге-Кутты получение соответвующего y для начальных x&lt;/font&gt;" style="whiteSpace=wrap;html=1;aspect=fixed;" vertex="1" parent="1">
          <mxGeometry x="845" y="570" width="170" height="170" as="geometry" />
        </mxCell>
        <mxCell id="Y5vmbJ8QWRPklpZZ9SDh-12" value="&lt;font style=&quot;font-size: 16px;&quot;&gt;Добавление новых y в&lt;br&gt;&amp;nbsp;начальные значения&lt;br&gt;\( y_{i} = y_{i-1} + \frac{h}{6}\) \(&lt;br&gt;(k_{1}+2k_{2}+2k_{3}+k_{4}) \)&lt;/font&gt;" style="rounded=1;whiteSpace=wrap;html=1;absoluteArcSize=1;arcSize=14;strokeWidth=2;" vertex="1" parent="1">
          <mxGeometry x="840" y="760" width="180" height="170" as="geometry" />
        </mxCell>
        <mxCell id="Y5vmbJ8QWRPklpZZ9SDh-13" value="&lt;span style=&quot;font-size: 16px;&quot;&gt;Здесь \( k_{1}, k_{2}, k_{3}, k_{4}\) - коэффициенты&lt;br&gt;&amp;nbsp;Рунге-Кутты 4 порядка&lt;br&gt;\( \begin{cases} k_{1} = f(x_{i-1},y_{i-1}) \\ k_{2} = f(x_{i-1}+\frac{h}{2},y_{i-1}+\frac{h}{2}k_{1}) \\ k_{3} = f(x_{i-1}+\frac{h}{2},y_{i-1}+\frac{h}{2}k_{2} \\ k_{4} = f(x_{i-1}+h,y_{i-1}+hk_{3}) \end{cases} \)&lt;br&gt;&lt;/span&gt;" style="strokeWidth=2;html=1;shape=mxgraph.flowchart.annotation_2;align=left;labelPosition=right;pointerEvents=1;" vertex="1" parent="1">
          <mxGeometry x="1035" y="770" width="50" height="140" as="geometry" />
        </mxCell>
        <mxCell id="Y5vmbJ8QWRPklpZZ9SDh-15" value="&lt;font style=&quot;font-size: 16px;&quot;&gt;i = i + 1&lt;/font&gt;" style="strokeWidth=2;html=1;shape=mxgraph.flowchart.loop_limit;whiteSpace=wrap;flipV=1;" vertex="1" parent="1">
          <mxGeometry x="855" y="950" width="150" height="90" as="geometry" />
        </mxCell>
        <mxCell id="Y5vmbJ8QWRPklpZZ9SDh-18" value="&lt;span style=&quot;font-size: 16px;&quot;&gt;Да&lt;/span&gt;" style="edgeStyle=orthogonalEdgeStyle;rounded=0;orthogonalLoop=1;jettySize=auto;html=1;exitX=1;exitY=0.5;exitDx=0;exitDy=0;exitPerimeter=0;entryX=0;entryY=0.5;entryDx=0;entryDy=0;" edge="1" parent="1" source="Y5vmbJ8QWRPklpZZ9SDh-16" target="Y5vmbJ8QWRPklpZZ9SDh-17">
          <mxGeometry relative="1" as="geometry" />
        </mxCell>
        <mxCell id="Y5vmbJ8QWRPklpZZ9SDh-41" value="&lt;font style=&quot;font-size: 16px;&quot;&gt;Нет&lt;/font&gt;" style="edgeStyle=orthogonalEdgeStyle;rounded=0;orthogonalLoop=1;jettySize=auto;html=1;exitX=0.5;exitY=1;exitDx=0;exitDy=0;exitPerimeter=0;entryX=0.5;entryY=0;entryDx=0;entryDy=0;" edge="1" parent="1" source="Y5vmbJ8QWRPklpZZ9SDh-16" target="Y5vmbJ8QWRPklpZZ9SDh-19">
          <mxGeometry relative="1" as="geometry" />
        </mxCell>
        <mxCell id="Y5vmbJ8QWRPklpZZ9SDh-16" value="&lt;font style=&quot;font-size: 16px;&quot;&gt;Последнее полученное значение \( x \ge b \)?&lt;/font&gt;" style="strokeWidth=2;html=1;shape=mxgraph.flowchart.decision;whiteSpace=wrap;" vertex="1" parent="1">
          <mxGeometry x="822.5" y="1510" width="215" height="220" as="geometry" />
        </mxCell>
        <mxCell id="Y5vmbJ8QWRPklpZZ9SDh-17" value="&lt;span style=&quot;font-size: 16px;&quot;&gt;Последнее полученное \( y \) -&amp;nbsp; это ответ&lt;/span&gt;" style="ellipse;whiteSpace=wrap;html=1;" vertex="1" parent="1">
          <mxGeometry x="1085" y="1575" width="145" height="90" as="geometry" />
        </mxCell>
        <mxCell id="Y5vmbJ8QWRPklpZZ9SDh-43" style="edgeStyle=orthogonalEdgeStyle;rounded=0;orthogonalLoop=1;jettySize=auto;html=1;exitX=0.5;exitY=1;exitDx=0;exitDy=0;entryX=0.5;entryY=0;entryDx=0;entryDy=0;" edge="1" parent="1" source="Y5vmbJ8QWRPklpZZ9SDh-19" target="Y5vmbJ8QWRPklpZZ9SDh-28">
          <mxGeometry relative="1" as="geometry" />
        </mxCell>
        <mxCell id="Y5vmbJ8QWRPklpZZ9SDh-19" value="&lt;font style=&quot;font-size: 16px;&quot;&gt;Новое значение \( y_{n+1} = \)&lt;br&gt;\( y_{n} + h(\frac{55}{24}f_{n} - \frac{59}{24}f_{n-1}\) &lt;br&gt;\(+\frac{37}{24} f_{n-2} - \frac{9}{24}f_{n-3})\)&lt;/font&gt;" style="rounded=1;whiteSpace=wrap;html=1;absoluteArcSize=1;arcSize=14;strokeWidth=2;" vertex="1" parent="1">
          <mxGeometry x="835" y="1760" width="190" height="190" as="geometry" />
        </mxCell>
        <mxCell id="Y5vmbJ8QWRPklpZZ9SDh-20" value="&lt;span style=&quot;font-size: 16px;&quot;&gt;Здесь \( f_{n}, f_{n-1}, f_{n-2}, f_{n-3} \) &lt;br&gt;- значение производной \(f(x,y) \) &lt;br&gt;в предыдущих точках&lt;br&gt;&lt;/span&gt;" style="strokeWidth=2;html=1;shape=mxgraph.flowchart.annotation_2;align=left;labelPosition=right;pointerEvents=1;" vertex="1" parent="1">
          <mxGeometry x="1035" y="1795" width="50" height="100" as="geometry" />
        </mxCell>
        <mxCell id="Y5vmbJ8QWRPklpZZ9SDh-46" value="&lt;font style=&quot;font-size: 16px;&quot;&gt;Да&lt;/font&gt;" style="edgeStyle=orthogonalEdgeStyle;rounded=0;orthogonalLoop=1;jettySize=auto;html=1;exitX=0.5;exitY=1;exitDx=0;exitDy=0;exitPerimeter=0;entryX=0.5;entryY=0;entryDx=0;entryDy=0;" edge="1" parent="1" source="Y5vmbJ8QWRPklpZZ9SDh-22" target="Y5vmbJ8QWRPklpZZ9SDh-23">
          <mxGeometry relative="1" as="geometry" />
        </mxCell>
        <mxCell id="Y5vmbJ8QWRPklpZZ9SDh-22" value="&lt;span style=&quot;font-size: 16px;&quot;&gt;\( | x_{n+1} - b | &amp;lt; h \)?&lt;/span&gt;" style="strokeWidth=2;html=1;shape=mxgraph.flowchart.decision;whiteSpace=wrap;" vertex="1" parent="1">
          <mxGeometry x="855" y="2130" width="150" height="150" as="geometry" />
        </mxCell>
        <mxCell id="Y5vmbJ8QWRPklpZZ9SDh-23" value="&lt;font style=&quot;font-size: 16px;&quot;&gt;\( h = b - x_{n+1} \)&lt;/font&gt;" style="rounded=1;whiteSpace=wrap;html=1;absoluteArcSize=1;arcSize=14;strokeWidth=2;" vertex="1" parent="1">
          <mxGeometry x="861.25" y="2310" width="137.5" height="140" as="geometry" />
        </mxCell>
        <mxCell id="Y5vmbJ8QWRPklpZZ9SDh-28" value="&lt;font style=&quot;font-size: 16px;&quot;&gt;Новое значение \( x_{n+1} = x_{n} + h \)&lt;/font&gt;" style="rounded=1;whiteSpace=wrap;html=1;absoluteArcSize=1;arcSize=14;strokeWidth=2;" vertex="1" parent="1">
          <mxGeometry x="857.5" y="1970" width="145" height="140" as="geometry" />
        </mxCell>
        <mxCell id="Y5vmbJ8QWRPklpZZ9SDh-36" style="edgeStyle=orthogonalEdgeStyle;rounded=0;orthogonalLoop=1;jettySize=auto;html=1;exitX=0.5;exitY=1;exitDx=0;exitDy=0;entryX=0.5;entryY=0;entryDx=0;entryDy=0;entryPerimeter=0;" edge="1" parent="1" source="Y5vmbJ8QWRPklpZZ9SDh-10" target="Y5vmbJ8QWRPklpZZ9SDh-9">
          <mxGeometry relative="1" as="geometry" />
        </mxCell>
        <mxCell id="Y5vmbJ8QWRPklpZZ9SDh-39" style="edgeStyle=orthogonalEdgeStyle;rounded=0;orthogonalLoop=1;jettySize=auto;html=1;exitX=0.5;exitY=1;exitDx=0;exitDy=0;entryX=0.5;entryY=1;entryDx=0;entryDy=0;entryPerimeter=0;" edge="1" parent="1" source="Y5vmbJ8QWRPklpZZ9SDh-12" target="Y5vmbJ8QWRPklpZZ9SDh-15">
          <mxGeometry relative="1" as="geometry" />
        </mxCell>
        <mxCell id="Y5vmbJ8QWRPklpZZ9SDh-44" style="edgeStyle=orthogonalEdgeStyle;rounded=0;orthogonalLoop=1;jettySize=auto;html=1;exitX=0.5;exitY=1;exitDx=0;exitDy=0;entryX=0.5;entryY=0;entryDx=0;entryDy=0;entryPerimeter=0;" edge="1" parent="1" source="Y5vmbJ8QWRPklpZZ9SDh-28" target="Y5vmbJ8QWRPklpZZ9SDh-22">
          <mxGeometry relative="1" as="geometry" />
        </mxCell>
        <mxCell id="Y5vmbJ8QWRPklpZZ9SDh-47" value="&lt;font style=&quot;font-size: 16px;&quot;&gt;Нет&lt;/font&gt;" style="edgeStyle=orthogonalEdgeStyle;rounded=0;orthogonalLoop=1;jettySize=auto;html=1;exitX=0;exitY=0.5;exitDx=0;exitDy=0;exitPerimeter=0;entryX=0;entryY=0.5;entryDx=0;entryDy=0;entryPerimeter=0;" edge="1" parent="1" source="Y5vmbJ8QWRPklpZZ9SDh-22" target="Y5vmbJ8QWRPklpZZ9SDh-16">
          <mxGeometry relative="1" as="geometry" />
        </mxCell>
        <mxCell id="Y5vmbJ8QWRPklpZZ9SDh-48" style="edgeStyle=orthogonalEdgeStyle;rounded=0;orthogonalLoop=1;jettySize=auto;html=1;exitX=0;exitY=0.5;exitDx=0;exitDy=0;entryX=0;entryY=0.5;entryDx=0;entryDy=0;entryPerimeter=0;" edge="1" parent="1" source="Y5vmbJ8QWRPklpZZ9SDh-23" target="Y5vmbJ8QWRPklpZZ9SDh-16">
          <mxGeometry relative="1" as="geometry" />
        </mxCell>
        <mxCell id="Y5vmbJ8QWRPklpZZ9SDh-54" value="&lt;font style=&quot;font-size: 16px;&quot;&gt;1&lt;/font&gt;" style="strokeWidth=2;html=1;shape=mxgraph.flowchart.start_2;whiteSpace=wrap;" vertex="1" parent="1">
          <mxGeometry x="880" y="1060" width="100" height="100" as="geometry" />
        </mxCell>
        <mxCell id="Y5vmbJ8QWRPklpZZ9SDh-55" style="edgeStyle=orthogonalEdgeStyle;rounded=0;orthogonalLoop=1;jettySize=auto;html=1;exitX=0.5;exitY=0;exitDx=0;exitDy=0;exitPerimeter=0;entryX=0.5;entryY=0;entryDx=0;entryDy=0;entryPerimeter=0;" edge="1" parent="1" source="Y5vmbJ8QWRPklpZZ9SDh-15" target="Y5vmbJ8QWRPklpZZ9SDh-54">
          <mxGeometry relative="1" as="geometry" />
        </mxCell>
        <mxCell id="Y5vmbJ8QWRPklpZZ9SDh-56" value="&lt;font style=&quot;font-size: 16px;&quot;&gt;1&lt;/font&gt;" style="strokeWidth=2;html=1;shape=mxgraph.flowchart.start_2;whiteSpace=wrap;" vertex="1" parent="1">
          <mxGeometry x="880" y="1390" width="100" height="100" as="geometry" />
        </mxCell>
        <mxCell id="Y5vmbJ8QWRPklpZZ9SDh-57" style="edgeStyle=orthogonalEdgeStyle;rounded=0;orthogonalLoop=1;jettySize=auto;html=1;exitX=0.5;exitY=1;exitDx=0;exitDy=0;exitPerimeter=0;entryX=0.5;entryY=0;entryDx=0;entryDy=0;entryPerimeter=0;" edge="1" parent="1" source="Y5vmbJ8QWRPklpZZ9SDh-56" target="Y5vmbJ8QWRPklpZZ9SDh-16">
          <mxGeometry relative="1" as="geometry" />
        </mxCell>
      </root>
    </mxGraphModel>
  </diagram>
</mxfile>
